<svg width="386" height="192" viewBox="0 0 386 192" fill="none" xmlns="http://www.w3.org/2000/svg">
<rect x="145.031" y="24.4868" width="28.6385" height="87.7519" rx="12" fill="#B5E0DF"/>
<rect x="177.965" y="24.4868" width="30.0705" height="87.7519" rx="12" fill="#B5E0DF"/>
<rect x="212.331" y="24.4868" width="28.6386" height="87.7519" rx="12" fill="#B5E0DF"/>
<path d="M246.508 72.7997V32.9915C370.578 -40.5218 394.136 29.8604 382.271 72.7997C364.609 136.72 277.153 100.09 246.508 72.7997Z" fill="#B5E0DF"/>
<path d="M273.262 190.777C276.683 157.729 262.187 125.534 246.508 98.745V81.0622C303.164 123.889 343.815 155.476 348.803 190.777C326.771 190.777 286.803 191.278 273.262 190.777Z" fill="#B5E0DF"/>
<path d="M246.508 72.7997V32.9915C370.578 -40.5218 394.136 29.8604 382.271 72.7997C364.609 136.72 277.153 100.09 246.508 72.7997Z" stroke="#B5E0DF"/>
<path d="M273.262 190.777C276.683 157.729 262.187 125.534 246.508 98.745V81.0622C303.164 123.889 343.815 155.476 348.803 190.777C326.771 190.777 286.803 191.278 273.262 190.777Z" stroke="#B5E0DF"/>
<path d="M139.492 72.7997V32.9915C15.422 -40.5218 -8.13551 29.8604 3.7292 72.7997C21.3912 136.72 108.847 100.09 139.492 72.7997Z" fill="#B5E0DF"/>
<path d="M112.738 190.777C109.317 157.729 123.813 125.534 139.492 98.745V81.0622C82.836 123.889 42.1853 155.476 37.1966 190.777C59.2294 190.777 99.197 191.278 112.738 190.777Z" fill="#B5E0DF"/>
<path d="M139.492 72.7997V32.9915C15.422 -40.5218 -8.13551 29.8604 3.7292 72.7997C21.3912 136.72 108.847 100.09 139.492 72.7997Z" stroke="#B5E0DF"/>
<path d="M112.738 190.777C109.317 157.729 123.813 125.534 139.492 98.745V81.0622C82.836 123.889 42.1853 155.476 37.1966 190.777C59.2294 190.777 99.197 191.278 112.738 190.777Z" stroke="#B5E0DF"/>
</svg>
