<svg width="235" height="177" viewBox="0 0 235 177" fill="none" xmlns="http://www.w3.org/2000/svg">
<rect x="84" y="11" width="20" height="62" rx="10" fill="#B5E0DF"/>
<rect x="107" y="11" width="21" height="62" rx="10.5" fill="#B5E0DF"/>
<rect x="131" y="11" width="20" height="62" rx="10" fill="#B5E0DF"/>
<path d="M155 50.4327V18.1266C230.282 -24.298 238.104 21.9871 232.604 50.4327C212.562 103.585 172.517 72.5796 155 50.4327Z" fill="#B5E0DF"/>
<path d="M179.442 163.809C181.398 136.989 163.962 86.8027 155 65.0621V57.138C191.663 83.4705 206.533 147.351 209.384 176C204.007 167.223 187.182 164.215 179.442 163.809Z" fill="#B5E0DF"/>
<path d="M155 50.4327V18.1266C230.282 -24.298 238.104 21.9871 232.604 50.4327C212.562 103.585 172.517 72.5796 155 50.4327Z" stroke="#B5E0DF"/>
<path d="M179.442 163.809C181.398 136.989 163.962 86.8027 155 65.0621V57.138C191.663 83.4705 206.533 147.351 209.384 176C204.007 167.223 187.182 164.215 179.442 163.809Z" stroke="#B5E0DF"/>
<path d="M80 50.4327V18.1266C4.71774 -24.298 -3.1038 21.9871 2.39572 50.4327C22.4384 103.585 62.483 72.5796 80 50.4327Z" fill="#B5E0DF"/>
<path d="M55.5577 163.809C53.6023 136.989 71.0378 86.8027 80 65.0621V57.138C43.3366 83.4705 28.4675 147.351 25.6159 176C30.9932 167.223 47.8176 164.215 55.5577 163.809Z" fill="#B5E0DF"/>
<path d="M80 50.4327V18.1266C4.71774 -24.298 -3.1038 21.9871 2.39572 50.4327C22.4384 103.585 62.483 72.5796 80 50.4327Z" stroke="#B5E0DF"/>
<path d="M55.5577 163.809C53.6023 136.989 71.0378 86.8027 80 65.0621V57.138C43.3366 83.4705 28.4675 147.351 25.6159 176C30.9932 167.223 47.8176 164.215 55.5577 163.809Z" stroke="#B5E0DF"/>
</svg>
